HIERARCHY
ROOT Hips
{
	OFFSET 0.000000 100.481300 0.000000
	CHANNELS 6 Xposition Yposition Zposition Xrotation Yrotation Zrotation
	JOINT Spine
	{
		OFFSET -0.279200 12.230698 -2.892100
		CHANNELS 3 Xrotation Yrotation Zrotation
		JOINT Spine1
		{
			OFFSET -0.325700 14.269203 -3.374200
			CHANNELS 3 Xrotation Yrotation Zrotation
			JOINT Spine2
			{
				OFFSET -0.372300 16.307602 -0.352600
				CHANNELS 3 Xrotation Yrotation Zrotation
				JOINT Neck
				{
					OFFSET -0.418800 17.814194 8.416900
					CHANNELS 3 Xrotation Yrotation Zrotation
					JOINT Head
					{
						OFFSET 0.000000 7.031097 3.806800
						CHANNELS 3 Xrotation Yrotation Zrotation
						JOINT HeadTop_End
						{
							OFFSET 0.000000 24.646606 12.978600
							CHANNELS 3 Xrotation Yrotation Zrotation
							End Site
							{
								OFFSET 0.000000 27.854965 0.000000
							}
						}
					}
				}
				JOINT LeftShoulder
				{
					OFFSET 16.952999 14.495407 -7.737500
					CHANNELS 3 Xrotation Yrotation Zrotation
					JOINT LeftArm
					{
						OFFSET 9.308998 -2.777710 0.208600
						CHANNELS 3 Xrotation Yrotation Zrotation
						JOINT LeftForeArm
						{
							OFFSET 29.972298 0.000000 0.000000
							CHANNELS 3 Xrotation Yrotation Zrotation
							JOINT LeftHand
							{
								OFFSET 26.026505 0.000000 0.000000
								CHANNELS 3 Xrotation Yrotation Zrotation
								JOINT LeftHandThumb1
								{
									OFFSET 12.240501 -7.147949 9.207150
									CHANNELS 3 Xrotation Yrotation Zrotation
									JOINT LeftHandThumb2
									{
										OFFSET 4.138618 -2.389435 2.389433
										CHANNELS 3 Xrotation Yrotation Zrotation
										JOINT LeftHandThumb3
										{
											OFFSET 2.726913 -1.574387 1.574386
											CHANNELS 3 Xrotation Yrotation Zrotation
											JOINT LeftHandThumb4
											{
												OFFSET 3.941010 -2.275345 2.275342
												CHANNELS 3 Xrotation Yrotation Zrotation
												End Site
												{
													OFFSET -0.005798 5.087799 0.009903
												}
											}
										}
									}
								}
								JOINT LeftHandIndex1
								{
									OFFSET 24.424698 -1.985611 5.953459
									CHANNELS 3 Xrotation Yrotation Zrotation
									JOINT LeftHandIndex2
									{
										OFFSET 6.426697 0.000000 0.000000
										CHANNELS 3 Xrotation Yrotation Zrotation
										JOINT LeftHandIndex3
										{
											OFFSET 5.337898 0.000000 0.000000
											CHANNELS 3 Xrotation Yrotation Zrotation
											JOINT LeftHandIndex4
											{
												OFFSET 4.409401 0.000000 0.000000
												CHANNELS 3 Xrotation Yrotation Zrotation
												End Site
												{
													OFFSET 0.000000 4.409363 0.014373
												}
											}
										}
									}
								}
								JOINT LeftHandMiddle1
								{
									OFFSET 23.810104 0.000000 0.000000
									CHANNELS 3 Xrotation Yrotation Zrotation
									JOINT LeftHandMiddle2
									{
										OFFSET 7.176498 0.000000 0.000000
										CHANNELS 3 Xrotation Yrotation Zrotation
										JOINT LeftHandMiddle3
										{
											OFFSET 6.774902 0.000000 0.000000
											CHANNELS 3 Xrotation Yrotation Zrotation
											JOINT LeftHandMiddle4
											{
												OFFSET 5.403328 0.000000 0.000000
												CHANNELS 3 Xrotation Yrotation Zrotation
												End Site
												{
													OFFSET -0.027702 5.403244 0.017414
												}
											}
										}
									}
								}
								JOINT LeftHandRing1
								{
									OFFSET 22.908401 -0.839279 -6.020567
									CHANNELS 3 Xrotation Yrotation Zrotation
									JOINT LeftHandRing2
									{
										OFFSET 6.337502 0.000000 0.000000
										CHANNELS 3 Xrotation Yrotation Zrotation
										JOINT LeftHandRing3
										{
											OFFSET 5.779297 0.000000 0.000000
											CHANNELS 3 Xrotation Yrotation Zrotation
											JOINT LeftHandRing4
											{
												OFFSET 4.965698 0.000000 0.000000
												CHANNELS 3 Xrotation Yrotation Zrotation
												End Site
												{
													OFFSET 0.000000 4.965668 0.016186
												}
											}
										}
									}
								}
								JOINT LeftHandPinky1
								{
									OFFSET 20.037003 -1.530319 -10.950146
									CHANNELS 3 Xrotation Yrotation Zrotation
									JOINT LeftHandPinky2
									{
										OFFSET 5.254700 0.000000 0.000000
										CHANNELS 3 Xrotation Yrotation Zrotation
										JOINT LeftHandPinky3
										{
											OFFSET 4.810204 0.000000 0.000000
											CHANNELS 3 Xrotation Yrotation Zrotation
											JOINT LeftHandPinky4
											{
												OFFSET 3.647202 0.000000 0.000000
												CHANNELS 3 Xrotation Yrotation Zrotation
												End Site
												{
													OFFSET 0.000000 3.647186 0.011889
												}
											}
										}
									}
								}
							}
						}
					}
				}
				JOINT RightShoulder
				{
					OFFSET -15.141001 14.495407 -7.737500
					CHANNELS 3 Xrotation Yrotation Zrotation
					JOINT RightArm
					{
						OFFSET -9.308998 -2.777710 0.208500
						CHANNELS 3 Xrotation Yrotation Zrotation
						JOINT RightForeArm
						{
							OFFSET -29.972300 0.000000 0.000000
							CHANNELS 3 Xrotation Yrotation Zrotation
							JOINT RightHand
							{
								OFFSET -26.026505 0.000000 0.000000
								CHANNELS 3 Xrotation Yrotation Zrotation
								JOINT RightHandThumb1
								{
									OFFSET -12.240601 -7.148026 9.207092
									CHANNELS 3 Xrotation Yrotation Zrotation
									JOINT RightHandThumb2
									{
										OFFSET -4.138618 -2.389435 2.389433
										CHANNELS 3 Xrotation Yrotation Zrotation
										JOINT RightHandThumb3
										{
											OFFSET -2.726974 -1.574417 1.574421
											CHANNELS 3 Xrotation Yrotation Zrotation
											JOINT RightHandThumb4
											{
												OFFSET -3.941010 -2.275345 2.275343
												CHANNELS 3 Xrotation Yrotation Zrotation
												End Site
												{
													OFFSET 0.005814 5.087799 0.009927
												}
											}
										}
									}
								}
								JOINT RightHandIndex1
								{
									OFFSET -24.424698 -1.985657 5.953444
									CHANNELS 3 Xrotation Yrotation Zrotation
									JOINT RightHandIndex2
									{
										OFFSET -6.426697 0.000000 0.000000
										CHANNELS 3 Xrotation Yrotation Zrotation
										JOINT RightHandIndex3
										{
											OFFSET -5.337898 0.000000 0.000000
											CHANNELS 3 Xrotation Yrotation Zrotation
											JOINT RightHandIndex4
											{
												OFFSET -4.409401 0.000000 0.000000
												CHANNELS 3 Xrotation Yrotation Zrotation
												End Site
												{
													OFFSET 0.000000 4.409363 0.014408
												}
											}
										}
									}
								}
								JOINT RightHandMiddle1
								{
									OFFSET -23.810097 0.000000 0.000000
									CHANNELS 3 Xrotation Yrotation Zrotation
									JOINT RightHandMiddle2
									{
										OFFSET -7.176498 0.000000 0.000000
										CHANNELS 3 Xrotation Yrotation Zrotation
										JOINT RightHandMiddle3
										{
											OFFSET -6.774902 0.000000 0.000000
											CHANNELS 3 Xrotation Yrotation Zrotation
											JOINT RightHandMiddle4
											{
												OFFSET -5.403328 0.000000 0.000000
												CHANNELS 3 Xrotation Yrotation Zrotation
												End Site
												{
													OFFSET 0.027702 5.403244 0.017457
												}
											}
										}
									}
								}
								JOINT RightHandRing1
								{
									OFFSET -22.908302 -0.839325 -6.020576
									CHANNELS 3 Xrotation Yrotation Zrotation
									JOINT RightHandRing2
									{
										OFFSET -6.337502 0.000000 0.000000
										CHANNELS 3 Xrotation Yrotation Zrotation
										JOINT RightHandRing3
										{
											OFFSET -5.779297 0.000000 0.000000
											CHANNELS 3 Xrotation Yrotation Zrotation
											JOINT RightHandRing4
											{
												OFFSET -4.965698 0.000000 0.000000
												CHANNELS 3 Xrotation Yrotation Zrotation
												End Site
												{
													OFFSET 0.000000 4.965668 0.016226
												}
											}
										}
									}
								}
								JOINT RightHandPinky1
								{
									OFFSET -20.037003 -1.530334 -10.950259
									CHANNELS 3 Xrotation Yrotation Zrotation
									JOINT RightHandPinky2
									{
										OFFSET -5.254700 0.000000 0.000000
										CHANNELS 3 Xrotation Yrotation Zrotation
										JOINT RightHandPinky3
										{
											OFFSET -4.810204 0.000000 0.000000
											CHANNELS 3 Xrotation Yrotation Zrotation
											JOINT RightHandPinky4
											{
												OFFSET -3.647202 0.000000 0.000000
												CHANNELS 3 Xrotation Yrotation Zrotation
												End Site
												{
													OFFSET 0.000000 3.647186 0.011917
												}
											}
										}
									}
								}
							}
						}
					}
				}
			}
		}
	}
	JOINT LeftUpLeg
	{
		OFFSET 15.427100 -6.655098 0.678600
		CHANNELS 3 Xrotation Yrotation Zrotation
		JOINT LeftLeg
		{
			OFFSET 4.081073 -39.591068 13.024000
			CHANNELS 3 Xrotation Yrotation Zrotation
			JOINT LeftFoot
			{
				OFFSET -4.081074 -37.707932 -15.979700
				CHANNELS 3 Xrotation Yrotation Zrotation
				JOINT LeftToeBase
				{
					OFFSET 5.346399 -15.068900 20.645000
					CHANNELS 3 Xrotation Yrotation Zrotation
					JOINT LeftToe_End
					{
						OFFSET 2.754700 0.931300 11.300900
						CHANNELS 3 Xrotation Yrotation Zrotation
						End Site
						{
							OFFSET 0.000000 11.669021 0.000000
						}
					}
				}
			}
		}
	}
	JOINT RightUpLeg
	{
		OFFSET -15.569500 -6.655098 0.678600
		CHANNELS 3 Xrotation Yrotation Zrotation
		JOINT RightLeg
		{
			OFFSET -4.081825 -39.591045 13.023800
			CHANNELS 3 Xrotation Yrotation Zrotation
			JOINT RightFoot
			{
				OFFSET 4.081824 -37.707954 -15.979600
				CHANNELS 3 Xrotation Yrotation Zrotation
				JOINT RightToeBase
				{
					OFFSET -5.346400 -15.068900 20.645000
					CHANNELS 3 Xrotation Yrotation Zrotation
					JOINT RightToe_End
					{
						OFFSET -2.754700 0.931300 11.300900
						CHANNELS 3 Xrotation Yrotation Zrotation
						End Site
						{
							OFFSET 0.000000 11.669021 0.000000
						}
					}
				}
			}
		}
	}
}
MOTION
Frames: 4
Frame Time: 0.033333
-3.272319 43.357132 20.807549 -33.854417 31.844241 11.255631 10.571948 5.148466 1.893317 21.369989 7.855098 0.590763 21.369980 7.855088 0.590759 -5.790298 6.680374 -1.665500 -4.428867 31.708088 -3.010123 -0.000001 0.000000 0.000000 -1.566139 -13.712595 -8.981151 -65.477103 -35.755207 -69.318545 -122.827565 -41.743241 -100.667187 -9.026875 -17.996968 -27.040616 9.197885 21.301400 -51.101706 17.191690 -8.422406 13.786301 0.000000 0.000003 -0.000009 0.000001 0.000000 0.000004 -11.709612 5.295290 -37.805063 1.528316 0.995054 -79.204199 0.000001 0.000001 0.000003 0.000001 0.000000 0.000001 -1.451386 7.973000 -32.444884 -4.523180 -4.813979 -81.306702 0.000004 0.000001 -0.000001 -0.000000 0.000001 0.000003 -6.255000 13.742744 -43.252262 -2.992115 -4.491199 -66.013778 -0.000009 -0.000000 0.000005 0.000002 -0.000001 0.000001 -13.268761 10.152622 -49.909401 -6.549349 -6.360772 -52.826421 0.000001 -0.000001 -0.000002 0.000002 0.000001 -0.000002 0.554447 3.386251 -10.027169 -42.472811 26.288357 19.325592 100.978316 109.938991 -102.506140 20.347861 -2.929622 -38.539093 25.017822 14.892469 9.666141 4.104361 -10.782360 -2.552650 -0.000003 0.000008 -0.000009 0.000003 -0.000000 -0.000000 -8.102009 -2.837736 40.281594 -2.987345 2.442706 65.449277 -0.000003 -0.000001 -0.000003 -0.000000 -0.000001 -0.000003 -1.379854 0.015736 51.329647 -2.003219 3.289863 52.764564 0.000001 0.000007 -0.000004 0.000001 -0.000000 0.000002 -1.549235 0.062943 46.381991 -0.928299 3.607542 35.150151 0.000000 -0.000000 0.000001 0.000000 -0.000000 0.000001 0.418611 2.402538 39.075061 -0.588506 6.268734 16.869295 0.000000 0.000000 -0.000000 -0.000000 0.000000 -0.000000 -70.759838 22.246751 -2.003924 88.644750 -11.394340 -1.980461 19.662989 1.727761 23.018091 -11.232717 0.069089 -0.387313 0.000000 -0.000002 0.000000 -35.026641 12.818234 -53.083397 90.206308 0.074289 8.742732 -1.336051 1.070371 22.953674 0.565066 -0.111277 0.407254 0.000000 -0.000002 -0.000000 
-3.177350 43.417908 20.607666 -33.790455 30.679680 10.546205 10.777304 5.289798 1.926942 21.797955 8.163333 0.550724 21.797956 8.163340 0.550722 -5.634539 6.626320 -1.492663 -4.500909 31.702559 -3.013551 0.000003 -0.000000 -0.000000 -1.595986 -13.821777 -9.108227 -68.620547 -37.970927 -70.478379 -121.304952 -41.606931 -97.364401 -9.402019 -14.381636 -29.611233 9.353377 21.037589 -51.191916 17.192088 -8.422102 13.784045 0.000001 0.000002 -0.000008 0.000000 -0.000000 -0.000001 -11.725932 4.960795 -39.542779 1.304898 0.961131 -80.476226 0.000001 0.000000 -0.000001 0.000001 0.000000 -0.000003 -1.470469 7.656551 -34.249184 -4.679214 -4.840558 -82.653731 0.000004 0.000001 0.000001 0.000000 0.000001 0.000001 -6.285144 13.473415 -45.062357 -3.062033 -4.521943 -67.424178 -0.000007 0.000001 0.000007 0.000001 0.000001 0.000002 -13.266317 9.892549 -51.757770 -6.549426 -6.386930 -54.602728 0.000001 -0.000000 -0.000000 -0.000000 -0.000002 -0.000001 0.527310 3.120023 -9.915570 -39.921619 22.316796 18.671890 87.676802 109.847699 -88.348196 18.750024 -6.333302 -40.860558 25.679232 14.891117 9.674459 4.108831 -10.790511 -2.552108 -0.000005 0.000008 -0.000005 0.000000 0.000001 -0.000001 -8.088844 -2.846936 40.073089 -2.930480 2.416022 64.862181 -0.000004 0.000000 -0.000004 0.000001 0.000000 0.000001 -1.365719 0.001889 51.027083 -1.959400 3.256204 52.144161 -0.000000 0.000007 0.000000 -0.000000 -0.000001 0.000000 -1.510856 0.023432 45.918580 -0.898248 3.564362 34.537313 -0.000000 0.000000 -0.000002 0.000001 0.000000 -0.000002 0.477118 2.316868 38.502316 -0.572555 6.222018 16.235546 0.000001 0.000000 -0.000001 0.000001 0.000000 -0.000001 -70.731151 21.289824 -1.039297 88.723891 -10.808973 -2.061517 19.053340 1.518734 22.937794 -11.408888 0.068724 -0.386974 -0.000000 0.000001 0.000000 -35.852551 12.921512 -51.928060 90.045259 -0.763663 8.567443 -0.842866 1.827030 22.761081 0.646791 -0.111180 0.355958 0.000000 0.000001 -0.000000 
-3.155077 43.465172 20.425842 -33.784055 29.410033 9.768065 10.940559 5.485141 1.968031 22.145106 8.587068 0.522494 22.145109 8.587078 0.522494 -5.556903 6.634974 -1.369952 -4.590304 31.918119 -3.026823 0.000000 0.000000 0.000000 -1.574013 -13.913759 -8.966908 -71.368496 -39.502802 -72.131012 -119.765974 -41.362502 -94.801824 -9.473191 -10.994872 -31.243573 9.418633 20.906733 -50.965912 17.192443 -8.421802 13.781935 0.000000 0.000004 -0.000006 0.000000 -0.000000 0.000001 -11.730822 4.646903 -41.053450 1.115320 0.932790 -81.927334 0.000001 -0.000000 0.000004 -0.000001 -0.000000 0.000000 -1.480992 7.361293 -35.826641 -4.834513 -4.860499 -84.051557 0.000005 0.000003 -0.000004 -0.000002 0.000000 0.000004 -6.306304 13.217774 -46.645927 -3.138105 -4.552592 -68.836368 -0.000007 0.000004 0.000004 -0.000000 0.000000 -0.000001 -13.256185 9.642083 -53.378591 -6.550969 -6.412414 -56.418500 0.000002 0.000003 0.000004 0.000001 -0.000001 0.000001 0.504651 2.895018 -9.853568 -37.469458 18.276739 18.506847 75.929096 110.668940 -75.499989 17.043327 -9.443692 -43.355507 26.464843 14.894382 9.684281 4.114147 -10.800132 -2.551423 -0.000004 0.000010 -0.000008 0.000001 0.000003 0.000003 -8.073355 -2.858063 39.825344 -2.863303 2.383522 64.163767 -0.000006 -0.000000 -0.000003 -0.000002 0.000000 -0.000002 -1.348855 -0.014683 50.667525 -1.907802 3.215576 51.406637 0.000001 0.000008 -0.000002 0.000001 0.000001 -0.000003 -1.465860 -0.023563 45.368203 -0.863122 3.512633 33.808627 -0.000000 -0.000000 -0.000002 -0.000001 0.000000 -0.000002 0.544632 2.215796 37.822220 -0.554346 6.166257 15.482639 0.000000 -0.000000 -0.000000 0.000001 -0.000000 -0.000000 -70.697027 20.145518 0.090679 88.848316 -10.108397 -2.163477 18.420047 1.321290 22.971682 -11.672684 0.068208 -0.386454 0.000000 0.000001 0.000000 -36.596140 13.168643 -50.290860 89.939193 -1.578338 8.384588 -0.410397 2.171780 22.733450 0.867583 -0.111380 0.300821 -0.000000 -0.000003 0.000000 
-3.177854 43.499107 20.244179 -33.859789 28.083503 8.898915 11.060684 5.673509 2.019620 22.403847 9.008537 0.531008 22.403855 9.008548 0.531001 -5.473731 6.711589 -1.275250 -4.574475 32.417956 -3.114495 -0.000000 -0.000000 -0.000001 -1.496201 -14.032373 -8.527532 -73.092942 -40.087456 -73.833901 -118.622463 -41.236243 -93.794958 -9.284515 -7.801555 -31.468444 9.380721 20.923767 -50.384820 17.192793 -8.421543 13.779941 0.000001 0.000002 -0.000009 -0.000001 -0.000000 0.000003 -11.707525 4.369357 -42.109878 0.982990 0.915344 -83.081752 0.000001 -0.000000 0.000002 0.000000 -0.000000 0.000000 -1.467701 7.104081 -36.950630 -4.955938 -4.871792 -85.173811 0.000004 0.000000 -0.000004 0.000000 0.000002 0.000001 -6.305325 12.985632 -47.777006 -3.189579 -4.572058 -69.799923 -0.000008 0.000001 0.000010 -0.000001 0.000000 -0.000001 -13.227470 9.407475 -54.544508 -6.497872 -6.433625 -57.578925 0.000003 0.000002 0.000000 0.000000 -0.000001 -0.000000 0.474447 2.591161 -9.765043 -35.404128 14.682393 19.254407 67.373457 111.958542 -65.498639 15.515917 -12.015031 -45.835818 27.426823 14.838280 9.661596 4.120203 -10.811176 -2.550631 -0.000005 0.000009 -0.000007 -0.000002 0.000002 0.000002 -8.055827 -2.871064 39.540935 -2.786667 2.345098 63.361145 -0.000003 -0.000001 -0.000003 0.000001 0.000000 -0.000000 -1.316195 -0.044921 50.034465 -1.849158 3.168107 50.559615 0.000003 0.000007 0.000000 -0.000001 0.000001 -0.000002 -1.404021 -0.088503 44.574924 -0.830823 3.463756 33.126025 0.000002 0.000001 -0.000000 -0.000002 0.000001 -0.000000 0.619498 2.100779 37.042066 -0.543932 6.137713 15.101979 -0.000000 -0.000000 0.000000 -0.000000 0.000001 -0.000000 -70.656791 18.816393 1.362527 89.055633 -9.363240 -2.268940 17.711387 1.101801 22.882257 -12.000519 0.067368 -0.385900 -0.000001 -0.000000 -0.000000 -37.285374 13.420891 -48.260686 89.811913 -2.338727 8.194329 0.037614 2.181805 22.781138 0.702058 -0.112215 0.057945 -0.000000 -0.000000 0.000000 
